<svg xmlns="http://www.w3.org/2000/svg" width="24" height="36" viewBox="0 0 24 36"><g><g><path fill="#282830" d="M12.96 2.044c4.824 0 8.79 3.925 8.79 8.79v14.022c0 4.824-3.926 8.79-8.79 8.79h-2.126c-4.824 0-8.79-3.925-8.79-8.79V10.834c0-4.865 3.966-8.79 8.79-8.79zm10.833 22.812V10.834C23.793 4.864 18.928 0 12.96 0h-2.126C4.864 0 0 4.865 0 10.834v14.022C0 30.825 4.865 35.69 10.834 35.69h2.126c5.968 0 10.833-4.865 10.833-10.834z"/></g><g><path fill="#282830" d="M16.966 18.928c-.368-.409-1.022-.409-1.43 0l-2.617 2.862V11.406c0-.572-.45-1.022-1.022-1.022-.573 0-1.022.45-1.022 1.022v10.425l-2.617-2.862c-.368-.409-1.022-.409-1.43 0a.995.995 0 0 0 0 1.308l4.333 4.783c.368.41 1.022.41 1.43 0l4.375-4.783c.327-.408.327-.98 0-1.349z"/></g></g></svg>